<?xml version="1.0" encoding="utf-8"?>
<!-- Generator: Adobe Illustrator 23.0.5, SVG Export Plug-In . SVG Version: 6.00 Build 0)  -->
<svg version="1.1" id="Capa_1" xmlns="http://www.w3.org/2000/svg" xmlns:xlink="http://www.w3.org/1999/xlink" x="0px" y="0px"
	 viewBox="0 0 1037 378" style="enable-background:new 0 0 1037 378;" xml:space="preserve">
<style type="text/css">
	.st0{clip-path:url(#SVGID_2_);}
	.st1{fill:#FFFFFF;}
	.st2{fill:#32498C;}
	.st3{clip-path:url(#SVGID_4_);}
	.st4{fill:#D36039;}
	.st5{opacity:0.2;fill:#26261F;}
	.st6{fill:#FF6300;}
	.st7{fill:#F4F4F5;}
	.st8{fill:#F3F4F5;}
	.st9{fill:#79797A;}
	.st10{fill:#606060;}
	.st11{fill:#314784;}
	.st12{clip-path:url(#SVGID_8_);fill-rule:evenodd;clip-rule:evenodd;fill:#FFFFFF;}
	.st13{clip-path:url(#SVGID_8_);fill-rule:evenodd;clip-rule:evenodd;fill:#000200;}
	.st14{clip-path:url(#SVGID_8_);}
	.st15{fill:#000200;}
</style>
<g>
	<g>
		<g>
			<path class="st2" d="M77.23,342.61c-5.45,0-10.49-1.28-15.12-3.83c-4.63-2.56-8.65-6.05-12.05-10.49
				c-3.41-4.44-6.07-9.71-7.97-15.81c-1.9-6.1-2.85-12.69-2.85-19.78c0-7.17,0.95-13.72,2.85-19.64c1.9-5.92,4.56-10.96,7.97-15.14
				c3.41-4.17,7.43-7.4,12.05-9.69c4.63-2.29,9.67-3.43,15.12-3.43h30.17v17.09H77.23c-3.52,0-6.76,0.79-9.74,2.35
				c-2.98,1.57-5.54,3.75-7.7,6.52c-2.15,2.78-3.84,6.1-5.06,9.96c-1.22,3.86-1.83,8.12-1.83,12.78c0,4.58,0.61,8.84,1.83,12.78
				c1.22,3.95,2.91,7.33,5.06,10.16c2.15,2.83,4.72,5.04,7.7,6.66c2.98,1.61,6.22,2.42,9.74,2.42h30.17v17.09H77.23z"/>
			<path class="st2" d="M154.09,342.61c-5.45,0-10.49-1.28-15.12-3.83c-4.63-2.56-8.65-6.05-12.05-10.49
				c-3.41-4.44-6.07-9.71-7.97-15.81c-1.9-6.1-2.85-12.69-2.85-19.78c0-7.17,0.95-13.72,2.85-19.64c1.9-5.92,4.56-10.96,7.97-15.14
				c3.41-4.17,7.43-7.4,12.05-9.69c4.63-2.29,9.67-3.43,15.12-3.43h19.05c5.67,0,10.85,1.17,15.55,3.5
				c4.7,2.33,8.73,5.61,12.11,9.82c3.37,4.22,5.99,9.26,7.86,15.14c1.86,5.88,2.8,12.36,2.8,19.44c0,7.09-0.95,13.68-2.85,19.78
				c-1.9,6.1-4.56,11.37-7.97,15.81c-3.41,4.44-7.45,7.94-12.11,10.49c-4.67,2.56-9.8,3.83-15.39,3.83H154.09z M173.14,325.52
				c3.59,0,6.89-0.81,9.9-2.42c3.01-1.61,5.61-3.83,7.8-6.66c2.19-2.82,3.89-6.21,5.11-10.16c1.22-3.95,1.83-8.21,1.83-12.78
				c0-4.57-0.61-8.81-1.83-12.71c-1.22-3.9-2.93-7.24-5.11-10.02c-2.19-2.78-4.79-4.95-7.8-6.52c-3.01-1.57-6.31-2.35-9.9-2.35
				h-19.05c-3.52,0-6.76,0.79-9.74,2.35c-2.98,1.57-5.54,3.75-7.7,6.52c-2.15,2.78-3.84,6.1-5.06,9.96
				c-1.22,3.86-1.83,8.12-1.83,12.78c0,4.58,0.61,8.84,1.83,12.78c1.22,3.95,2.91,7.33,5.06,10.16c2.15,2.83,4.72,5.04,7.7,6.66
				c2.98,1.61,6.22,2.42,9.74,2.42H173.14z"/>
			<path class="st2" d="M315.64,342.61l-14.96-68.75l-22.17,63.64c-0.79,2.06-1.74,3.66-2.85,4.78c-1.12,1.12-2.5,1.68-4.15,1.68
				c-3.23,0-5.56-2.15-6.99-6.46l-22.07-63.64l-14.96,68.75h-13.46l20.13-92.02c0.93-4.66,3.19-7,6.78-7c1.43,0,2.78,0.49,4.04,1.48
				c1.26,0.99,2.21,2.42,2.85,4.31l24.11,69.15l24.11-69.15c1.29-3.86,3.48-5.78,6.56-5.78c3.3,0,5.49,2.33,6.57,7l20.02,92.02
				H315.64z"/>
			<path class="st2" d="M348.48,315.43v-16.55h44.76c4.81,0,8.56-1.7,11.25-5.11c2.69-3.41,4.04-7.89,4.04-13.45
				c0-5.65-1.35-10.13-4.04-13.45c-2.69-3.32-6.44-4.98-11.25-4.98H351.8v80.72h-13.56V244.8h55c4.52,0,8.56,0.83,12.11,2.49
				c3.55,1.66,6.55,3.99,8.99,7c2.44,3.01,4.31,6.66,5.6,10.97c1.29,4.31,1.94,9.15,1.94,14.53c0,5.29-0.65,10.11-1.94,14.46
				c-1.29,4.35-3.16,8.09-5.6,11.23c-2.44,3.14-5.44,5.58-8.99,7.33c-3.55,1.75-7.59,2.62-12.11,2.62H348.48z"/>
			<path class="st2" d="M508.19,244.8L508.19,244.8c3.69,0,6.67,2.99,6.67,6.67v47.95c0,7.53-0.79,14.11-2.37,19.71
				c-1.58,5.61-4.05,10.25-7.43,13.92c-3.37,3.68-7.73,6.41-13.08,8.21c-5.35,1.79-11.82,2.69-19.43,2.69
				c-7.53,0-13.98-0.9-19.32-2.69c-5.35-1.79-9.71-4.53-13.08-8.21c-3.37-3.68-5.85-8.32-7.43-13.92
				c-1.58-5.6-2.37-12.18-2.37-19.71v-47.57c0-3.89,3.16-7.05,7.05-7.05h0c3.89,0,7.05,3.16,7.05,7.05v47.57
				c0,4.93,0.48,9.15,1.45,12.65c0.97,3.5,2.54,6.37,4.74,8.61c2.19,2.24,5.11,3.88,8.77,4.91c3.66,1.03,8.18,1.55,13.56,1.55
				c5.38,0,9.9-0.52,13.56-1.55c3.66-1.03,6.58-2.67,8.77-4.91c2.19-2.24,3.77-5.11,4.74-8.61c0.97-3.5,1.45-7.71,1.45-12.65v-47.95
				C501.52,247.78,504.5,244.8,508.19,244.8z"/>
		</g>
		<g>
			<path class="st6" d="M560.03,315.43v-16.55h32.51c4.81,0,8.56-1.7,11.25-5.11c2.69-3.41,4.04-7.89,4.04-13.45
				c0-5.65-1.35-10.13-4.04-13.45c-2.69-3.32-6.44-4.98-11.25-4.98h-41.44v80.72h-13.56V244.8h55c4.52,0,8.56,0.83,12.11,2.49
				c3.55,1.66,6.55,3.99,8.99,7c2.44,3.01,4.31,6.66,5.6,10.97c1.29,4.31,1.94,9.15,1.94,14.53c0,5.29-0.65,10.11-1.94,14.46
				c-1.29,4.35-3.16,8.09-5.6,11.23c-2.44,3.14-5.44,5.58-8.99,7.33c-3.55,1.75-7.59,2.62-12.11,2.62H560.03z"/>
			<path class="st6" d="M630.85,342.61v-90.4c0-4.09,3.32-7.41,7.41-7.41h2.4c4.09,0,7.41,3.32,7.41,7.41v73.31h40.54
				c4.72,0,8.54,3.82,8.54,8.54v0c0,4.72-3.82,8.54-8.54,8.54H630.85z"/>
			<path class="st6" d="M788.53,342.61l-11.73-24.62h-37.03l6.46-13.86h24l-17.44-36.59l-16.61,35.1l-18.91,39.97h-15.61
				l44.99-93.64c0.79-1.7,1.72-3.05,2.8-4.04c1.08-0.99,2.37-1.48,3.88-1.48c1.51,0,2.78,0.49,3.82,1.48
				c1.04,0.99,1.96,2.33,2.75,4.04l45.1,93.64H788.53z"/>
			<path class="st6" d="M818.66,342.61c-2.08,0-3.89-0.74-5.44-2.22c-1.54-1.48-2.31-3.65-2.31-6.52c0-2.51,0.93-4.93,2.8-7.27
				l51.99-65.52h-53.82V244.8h68.45c2.01,0,3.8,0.74,5.38,2.22c1.58,1.48,2.37,3.66,2.37,6.52c0,2.51-0.93,4.93-2.8,7.27
				l-51.99,65.52h54.46v16.28H818.66z"/>
			<path class="st6" d="M981.29,342.61l-11.73-24.62h-37.03l6.46-13.86h24l-17.44-36.59l-35.52,75.07h-15.61l44.99-93.64
				c0.79-1.7,1.72-3.05,2.8-4.04c1.08-0.99,2.37-1.48,3.88-1.48c1.51,0,2.78,0.49,3.82,1.48c1.04,0.99,1.96,2.33,2.75,4.04
				l45.1,93.64H981.29z"/>
		</g>
	</g>
</g>
<g>
	<path class="st6" d="M487.66,53.3c-1,0.42-1.73,0.7-2.43,1.02c-15.14,6.99-30.28,13.98-45.43,20.96
		c-12.1,5.58-16.55,17.57-11,29.74c12.99,28.47,25.99,56.93,39,85.39c5.46,11.95,17.46,16.36,29.41,10.84
		c28.29-13.06,56.58-26.11,84.87-39.18c11.84-5.47,16.33-17.58,10.91-29.5c-6.08-13.36-12.19-26.71-18.29-40.07
		c-0.23-0.51-0.52-1-0.88-1.68c-28.13,26.66-56.1,53.17-84.07,79.68c-0.15-0.1-0.3-0.19-0.45-0.29
		C488.75,131.33,488.21,92.45,487.66,53.3z"/>
	<path class="st6" d="M494.89,50.09c7.92,6.84,15.68,13.55,23.63,20.42c4.71-12.37,9.28-24.36,13.88-36.46
		C528.55,34.23,501.56,45.82,494.89,50.09z"/>
	<path class="st6" d="M568.72,79.4c-4.66-10.22-9.22-20.2-13.98-30.62c-4.17,10.4-8.15,20.35-12.27,30.62
		C551.42,79.4,559.9,79.4,568.72,79.4z"/>
	<path class="st6" d="M487.66,53.3c0.55,39.15,1.09,78.04,1.63,116.92c0.15,0.1,0.3,0.19,0.45,0.29
		c27.97-26.51,55.94-53.02,84.07-79.68c0.36,0.68,0.65,1.17,0.88,1.68c6.1,13.35,12.21,26.7,18.29,40.07
		c5.42,11.91,0.93,24.03-10.91,29.5c-28.29,13.06-56.58,26.12-84.87,39.18c-11.95,5.52-23.95,1.1-29.41-10.84
		c-13.01-28.46-26.01-56.92-39-85.39c-5.55-12.17-1.1-24.16,11-29.74c15.14-6.98,30.28-13.98,45.43-20.96
		C485.94,53.99,486.66,53.72,487.66,53.3z"/>
	<path class="st6" d="M494.89,50.09c6.67-4.27,33.66-15.86,37.52-16.04c-4.61,12.1-9.17,24.09-13.88,36.46
		C510.57,63.64,502.81,56.93,494.89,50.09z"/>
	<path class="st6" d="M568.72,79.4c-8.82,0-17.31,0-26.25,0c4.12-10.27,8.1-20.22,12.27-30.62C559.5,59.21,564.06,69.19,568.72,79.4
		z"/>
</g>
</svg>
